{"title":"Godzilla 2014 720p CAM V3 x264 Pimp4003","uid":10236148,"size":2054143496,"categoryP":"video","categoryS":"movies","magnet":"?xt=urn:btih:ef62ed67b72ac0b760dc4b5771d7b7f1dc973e51&amp;dn=Godzilla+2014+720p+CAM+V3+x264+Pimp4003&amp;tr=udp%3A%2F%2Ftracker.openbittorrent.com%3A80&amp;tr=udp%3A%2F%2Fopen.demonii.com%3A1337&amp;tr=udp%3A%2F%2Ftracker.coppersurfer.tk%3A6969&amp;tr=udp%3A%2F%2Fexodus.desync.com%3A6969","seeders":0,"leechers":0,"uploader":"shawnmurthy","files":-1,"time":1401188504,"description":"LISTEN BEFORE YOU COMPLAIN MY SOURCE PUT HIS LIFE ON THE RISK ON THIS TO GET IT SO IF YOU ARE GOING TO COMPLAIN DO NOT DOWNLOAD SIMPLE AS THAT AND ITS FREE....THE VIDEO AND AUDIO IS GOOD ON THE CAM ..EXCEPT WHEN HE RECORDED IT THE CHAIRS ARE THERE A LITTLE BUT ITS BETTER THEN EVERYTHING ELSE....I BRIGNTNED THE VIDEO IN ALL THE DARK SCENES SINCE MOST OF THE MOVIE IS IN DARK...AND AUDIO IS GOOD JUST SYNCED IT UP....THANKS TO SpEcTrE FOR SOURCE.....PIMP4003 OUT\n\nSCREEN SHOTS\n &lt;a href=&quot;\nhttp://pimp4003.net/torrents.php?id=ef62ed67b72ac0b760dc4b5771d7b7f1dc973e51&quot; rel=&quot;nofollow&quot; target=&quot;_NEW&quot;&gt;\nhttp://pimp4003.net/torrents.php?id=ef62ed67b72ac0b760dc4b5771d7b7f1dc973e51&lt;/a&gt;\n\nGodzilla 2014 720p CAM V3 x264 Pimp4003\n &lt;a href=&quot;\nhttp://www.imdb.com/title/tt0831387/&quot; rel=&quot;nofollow&quot; target=&quot;_NEW&quot;&gt;\nhttp://www.imdb.com/title/tt0831387/&lt;/a&gt;\n\nThe world's most famous monster is pitted against malevolent creatures who, bolstered by humanity's scientific arrogance, threaten our very existence.\n\nDirector: Gareth Edwards\nWriters: Max Borenstein (screenplay), Dave Callaham (story)\nStars: Aaron Taylor-Johnson, Elizabeth Olsen, Bryan Cranston | See full cast and crew Â»\n\nVideo\nID                                       : 2\nFormat                                   : AVC\nFormat/Info                              : Advanced Video Codec\nFormat profile                           : &lt;a class=&quot;__cf_email__&quot; href=&quot;/cdn-cgi/l/email-protection&quot; data-cfemail=&quot;c381a2b0a6afaaada6838ff0edf3&quot;&gt;[email&amp;#160;protected]&lt;/a&gt;&lt;script data-cfhash='f9e31' type=&quot;text/javascript&quot;&gt;\n/* &lt;![CDATA[ */!function(){try{var t=&quot;currentScript&quot;in document?document.currentScript:function(){for(var t=document.getElementsByTagName(&quot;script&quot;),e=t.length;e--;)if(t[e].getAttribute(&quot;data-cfhash&quot;))return t[e]}();if(t&amp;&amp;t.previousSibling){var e,r,n,i,c=t.previousSibling,a=c.getAttribute(&quot;data-cfemail&quot;);if(a){for(e=&quot;&quot;,r=parseInt(a.substr(0,2),16),n=2;a.length-n;n+=2)i=parseInt(a.substr(n,2),16)^r,e+=String.fromCharCode(i);e=document.createTextNode(e),c.parentNode.replaceChild(e,c)}t.parentNode.removeChild(t);}}catch(u){}}()/* ]]&gt; */&lt;/script&gt;\nFormat settings, CABAC                   : No\nFormat settings, ReFrames                : 1 frame\nFormat settings, GOP                     : M=1, N=25\nMuxing mode                              : Container profile=&lt;a class=&quot;__cf_email__&quot; href=&quot;/cdn-cgi/l/email-protection&quot; data-cfemail=&quot;793b180a1c1510171c394d5748&quot;&gt;[email&amp;#160;protected]&lt;/a&gt;&lt;script data-cfhash='f9e31' type=&quot;text/javascript&quot;&gt;\n/* &lt;![CDATA[ */!function(){try{var t=&quot;currentScript&quot;in document?document.currentScript:function(){for(var t=document.getElementsByTagName(&quot;script&quot;),e=t.length;e--;)if(t[e].getAttribute(&quot;data-cfhash&quot;))return t[e]}();if(t&amp;&amp;t.previousSibling){var e,r,n,i,c=t.previousSibling,a=c.getAttribute(&quot;data-cfemail&quot;);if(a){for(e=&quot;&quot;,r=parseInt(a.substr(0,2),16),n=2;a.length-n;n+=2)i=parseInt(a.substr(n,2),16)^r,e+=String.fromCharCode(i);e=document.createTextNode(e),c.parentNode.replaceChild(e,c)}t.parentNode.removeChild(t);}}catch(u){}}()/* ]]&gt; */&lt;/script&gt;\nCodec ID                                 : avc1\nCodec ID/Info                            : Advanced Video Coding\nDuration                                 : 2h 2mn\nBit rate                                 : 2 095 Kbps\nWidth                                    : 1 280 pixels\nHeight                                   : 720 pixels\nDisplay aspect ratio                     : 16:9\nFrame rate mode                          : Constant\nFrame rate                               : 29.970 fps\nOriginal frame rate                      : 29.000 fps\nColor space                              : YUV\nChroma subsampling                       : 4:2:0\nBit depth                                : 8 bits\nScan type                                : Progressive\nBits/(Pixel*Frame)                       : 0.076\nStream size                              : 1.80 GiB (94%)\nWriting library                          : Ã„\nLanguage                                 : English\n\nAudio\nID                                       : 1\nFormat                                   : AAC\nFormat/Info                              : Advanced Audio Codec\nFormat profile                           : LC\nCodec ID                                 : 40\nDuration                                 : 2h 2mn\nBit rate mode                            : Constant\nBit rate                                 : 128 Kbps\nChannel(s)                               : 2 channels\nChannel positions                        : Front: L R\nSampling rate                            : 48.0 KHz\nCompression mode                         : Lossy\nStream size                              : 112 MiB (6%)\nLanguage                                 : English\n","torrent":{"xt":"urn:btih:ef62ed67b72ac0b760dc4b5771d7b7f1dc973e51","amp;dn":"Godzilla+2014+720p+CAM+V3+x264+Pimp4003","amp;tr":["udp%3A%2F%2Ftracker.openbittorrent.com%3A80","udp%3A%2F%2Fopen.demonii.com%3A1337","udp%3A%2F%2Ftracker.coppersurfer.tk%3A6969","udp%3A%2F%2Fexodus.desync.com%3A6969"],"infoHash":"ef62ed67b72ac0b760dc4b5771d7b7f1dc973e51","infoHashBuffer":{"type":"Buffer","data":[239,98,237,103,183,42,192,183,96,220,75,87,113,215,183,241,220,151,62,81]},"announce":[],"urlList":[]}}